<svg xmlns="http://www.w3.org/2000/svg" viewBox="0 0 512 512">
  <defs>
    <linearGradient id="oasis-background" x1="72" y1="48" x2="440" y2="464" gradientUnits="userSpaceOnUse">
      <stop stop-color="#38BDF8"/>
      <stop offset="1" stop-color="#0284C7"/>
    </linearGradient>
  </defs>
  <rect width="512" height="512" fill="url(#oasis-background)"/>
  <path fill="#F0FBFF" fill-rule="evenodd" d="M256 124a132 132 0 1 1 0 264 132 132 0 0 1 0-264Zm0 58a74 74 0 1 0 0 148 74 74 0 0 0 0-148Z"/>
  <path fill="#7DD3FC" d="M256 204c-19 24-49 56-49 94 0 31 22 53 49 53s49-22 49-53c0-38-30-70-49-94Z"/>
  <path d="M232 303c4 14 13 23 27 27" fill="none" stroke="#E0F7FF" stroke-linecap="round" stroke-width="11"/>
</svg>
